<?xml version="1.0" standalone="no"?>
<!DOCTYPE svg PUBLIC "-//W3C//DTD SVG 20010904//EN"
 "http://www.w3.org/TR/2001/REC-SVG-20010904/DTD/svg10.dtd">
<svg version="1.0" xmlns="http://www.w3.org/2000/svg"
 width="301.000000pt" height="301.000000pt" viewBox="0 0 301.000000 301.000000"
 preserveAspectRatio="xMidYMid meet">
<metadata>
Created by potrace 1.14, written by Peter Selinger 2001-2017
</metadata>
<g transform="translate(0.000000,301.000000) scale(0.100000,-0.100000)"
fill="#000000" stroke="none">
<path d="M378 2499 c-9 -6 15 -57 53 -111 11 -14 19 -29 19 -32 0 -3 21 -40
46 -83 56 -96 43 -74 161 -278 54 -93 101 -177 106 -185 4 -8 21 -37 37 -65
17 -27 36 -61 43 -75 6 -14 14 -27 18 -30 3 -3 16 -23 28 -45 12 -22 25 -47
30 -55 39 -62 131 -222 131 -226 0 -2 11 -21 23 -42 13 -20 35 -57 49 -82 14
-25 48 -85 77 -133 28 -49 51 -93 51 -98 0 -5 5 -9 10 -9 6 0 10 -4 10 -10 0
-5 26 -54 58 -107 31 -54 64 -112 72 -128 8 -17 18 -32 21 -35 3 -3 21 -32 39
-65 18 -33 36 -64 40 -68 4 -5 22 18 40 50 18 32 53 91 77 130 23 40 43 77 43
83 0 5 5 10 12 10 6 0 9 3 5 6 -3 4 6 25 21 48 16 22 39 62 52 88 14 27 28 48
32 48 5 0 8 4 8 9 0 5 40 78 88 163 141 245 317 549 351 606 17 29 31 57 31
62 0 6 5 10 10 10 6 0 10 4 10 9 0 10 135 247 152 269 6 6 7 12 4 12 -4 0 -2
6 4 13 6 6 28 41 48 77 21 36 64 109 96 163 32 54 55 101 52 105 -8 7 -535 9
-547 1 -5 -3 20 -57 57 -120 37 -63 67 -118 67 -124 0 -5 -18 -41 -41 -79 -23
-37 -42 -69 -42 -71 0 -2 -24 -43 -52 -92 -29 -48 -62 -105 -73 -125 -19 -36
-121 -213 -158 -273 -9 -16 -20 -38 -23 -47 -4 -10 -10 -18 -15 -18 -5 0 -9
-4 -9 -10 0 -5 -14 -33 -32 -62 -17 -29 -45 -78 -62 -109 -137 -245 -200 -346
-212 -335 -7 6 -11 12 -9 14 2 2 -24 49 -57 105 -33 56 -71 122 -84 147 -14
25 -36 63 -49 85 -14 22 -31 51 -38 65 -6 14 -14 27 -18 30 -3 3 -23 37 -44
75 -20 39 -41 75 -45 80 -4 6 -19 30 -32 55 -14 25 -85 149 -158 275 -73 127
-141 244 -151 262 -17 31 -17 32 10 75 15 23 42 70 60 103 18 33 38 66 43 73
6 7 8 16 4 19 -8 9 -534 10 -548 2z"/>
<path d="M1209 2482 c-10 -13 -21 -32 -24 -43 -4 -10 -11 -19 -16 -19 -5 0 -9
-9 -9 -20 0 -11 -4 -20 -9 -20 -5 0 -15 -16 -22 -35 -7 -19 -16 -35 -19 -35
-4 0 -12 -12 -19 -26 -10 -22 -9 -33 7 -63 37 -72 57 -106 65 -109 4 -2 7 -8
7 -13 0 -5 11 -26 23 -47 13 -20 35 -57 49 -82 23 -40 117 -203 200 -345 16
-27 34 -62 41 -77 14 -34 23 -35 38 -5 7 12 15 24 18 27 3 3 14 21 23 40 20
40 61 113 68 120 3 3 12 19 21 35 8 17 48 86 87 154 40 68 72 127 72 132 0 5
4 9 9 9 5 0 13 9 16 20 4 11 24 50 46 86 22 36 43 72 45 79 3 7 -27 68 -66
136 l-72 124 -280 0 -280 0 -19 -23z m317 -17 c3 -14 10 -25 14 -25 4 0 10 -8
13 -17 4 -10 18 -38 33 -63 56 -94 61 -105 53 -120 -5 -8 -33 -57 -64 -108
-30 -51 -55 -97 -55 -102 0 -6 -6 -10 -12 -10 -7 1 -43 54 -80 118 l-66 117
26 45 c14 25 33 58 41 75 9 16 18 32 22 35 3 3 15 22 28 43 26 43 38 46 47 12z"/>
</g>
</svg>
