<svg width="100" height="65" viewBox="0 0 100 65" fill="none" xmlns="http://www.w3.org/2000/svg">
<path d="M95.8723 38.609L89.9418 40.6594L84.7917 11.6328L98.026 6.18626C98.4072 6.03059 98.7548 5.79938 99.0489 5.50582C99.343 5.21226 99.578 4.86211 99.7403 4.47536C99.9026 4.0886 99.9891 3.67282 99.9949 3.25175C100.001 2.83068 99.9255 2.41257 99.7739 2.02129C99.6222 1.63001 99.397 1.27322 99.111 0.971298C98.825 0.669374 98.4838 0.428227 98.107 0.261625C97.7303 0.0950239 97.3252 0.006232 96.915 0.000316434C96.5047 -0.00559913 96.0974 0.0714788 95.7162 0.22715L80.1098 6.6348C79.4297 6.89952 78.861 7.39974 78.502 8.04904C78.143 8.69834 78.0161 9.45596 78.1434 10.191V10.7677L70.6835 14.5803C70.1653 14.8502 69.5839 14.9662 69.0048 14.9152C68.4258 14.8643 67.8722 14.6484 67.4062 14.2919L59.8215 8.33283C58.2006 7.08504 56.2292 6.41053 54.2032 6.41053H45.7445C44.5949 6.41111 43.4679 6.73749 42.4875 7.35368C41.5072 7.96988 40.7117 8.85197 40.1886 9.9027L34.6015 9.61435C34.0603 9.59084 33.5225 9.71229 33.0409 9.96677L27.8283 12.6259L18.839 10.3192V9.9027C18.9054 9.25269 18.7765 8.59739 18.4697 8.02473C18.1628 7.45206 17.6927 6.98942 17.1223 6.69887L4.63721 0.291226C3.90966 -0.0197525 3.09444 -0.0367166 2.3552 0.243741C1.61597 0.524198 1.00747 1.08131 0.651855 1.80323C0.296244 2.52515 0.219855 3.35843 0.438026 4.13577C0.656196 4.9131 1.15277 5.57695 1.82806 5.99403L12.4092 11.4405L9.84975 40.4672L4.23145 38.5449C3.8277 38.4103 3.40208 38.3586 2.97887 38.3928C2.55567 38.427 2.14317 38.5464 1.76493 38.7442C1.38669 38.9421 1.05012 39.2145 0.774432 39.5458C0.498745 39.8772 0.28934 40.261 0.158175 40.6754C0.027009 41.0899 -0.0233489 41.5267 0.00997605 41.9611C0.043301 42.3955 0.159656 42.8189 0.352398 43.2072C0.545141 43.5954 0.810495 43.9409 1.13331 44.2239C1.45613 44.5068 1.83008 44.7218 2.23383 44.8564L11.5977 48.0602C11.9291 48.1064 12.2651 48.1064 12.5965 48.0602C13.2028 48.048 13.7951 47.8711 14.3132 47.5476C14.7094 47.2825 15.0417 46.9284 15.285 46.5122C15.5283 46.0959 15.6763 45.6283 15.7178 45.1448L15.9675 42.1652L19.9939 44.2157C20.3674 46.5936 21.578 48.7482 23.3961 50.2709L41.4059 63.5347C42.0461 64.0769 42.7852 64.4827 43.58 64.7282C44.3748 64.9737 45.2093 65.054 46.0347 64.9646C46.8601 64.8751 47.6599 64.6175 48.3872 64.207C49.1144 63.7964 49.7546 63.2411 50.2703 62.5736C51.4582 63.0369 52.7277 63.2393 53.9965 63.1675C55.2654 63.0958 56.5054 62.7516 57.6366 62.1571L74.5227 53.5068C75.5419 52.9783 76.4243 52.209 77.0972 51.2621C77.77 50.3152 78.2142 49.2178 78.3931 48.0602C78.4243 47.7193 78.4243 47.376 78.3931 47.035L84.3235 45.0166V45.4011C84.4026 45.8506 84.5744 46.2775 84.8275 46.6532C85.0805 47.029 85.4088 47.3449 85.7905 47.5797C86.3052 47.9074 86.9017 48.0744 87.5072 48.0602C87.8457 48.0538 88.1818 47.9999 88.506 47.9001L97.8699 44.6962C98.2593 44.5616 98.619 44.3496 98.9286 44.0722C99.2382 43.7949 99.4915 43.4577 99.6741 43.0798C99.8567 42.702 99.965 42.291 99.9928 41.8702C100.021 41.4494 99.9675 41.0271 99.8363 40.6274C99.7051 40.2277 99.4986 39.8584 99.2284 39.5407C98.9582 39.2229 98.6296 38.9629 98.2615 38.7755C97.8934 38.5881 97.493 38.4769 97.083 38.4483C96.6731 38.4197 96.2617 38.4743 95.8723 38.609ZM27.2041 45.2088C26.7105 44.787 26.3557 44.2191 26.1881 43.5827C26.0206 42.9462 26.0483 42.2722 26.2677 41.6526C26.299 41.5414 26.359 41.441 26.4415 41.362C26.5239 41.283 26.6257 41.2285 26.7359 41.2041C26.9232 41.2041 27.1729 41.2041 27.5474 41.4604L46.4312 55.4611L45.4011 58.6649L27.2041 45.2088ZM71.7136 47.7719L54.8274 56.4222C54.0924 56.8053 53.2397 56.8744 52.4552 56.6145C52.6564 55.4764 52.5537 54.3037 52.1581 53.2207C51.7624 52.1377 51.0885 51.1848 50.2079 50.4631L31.4802 36.4624C30.5923 35.7372 29.5445 35.247 28.4288 35.0347C27.3131 34.8224 26.1637 34.8946 25.0816 35.2449C23.5921 35.6873 22.2933 36.6363 21.3985 37.9362L17.1536 35.7576C16.9754 35.6749 16.7859 35.6208 16.5917 35.5974L18.246 16.9191L27.6098 19.2899L28.2029 19.2258C28.6915 19.2228 29.1726 19.1021 29.6075 18.8734L35.1009 16.022H37.1298L34.7888 20.8598C34.4186 21.6164 34.3552 22.4927 34.6126 23.2972C34.8699 24.1016 35.427 24.7688 36.1622 25.1529L36.8176 25.5053C38.8496 26.5519 41.1831 26.8039 43.3827 26.2144C45.5824 25.6249 47.498 24.2341 48.7721 22.3015H51.8934L71.8072 45.6574C71.8892 45.8244 71.9831 45.985 72.0881 46.1379C72.1952 46.2367 72.2748 46.363 72.3187 46.5037C72.3625 46.6445 72.3691 46.7947 72.3378 46.9389C72.3516 47.1063 72.3177 47.2742 72.2401 47.4222C72.1625 47.5701 72.0446 47.6916 71.9008 47.7719H71.7136ZM75.9585 41.14L55.4829 17.1113C55.1939 16.7736 54.8389 16.5021 54.4409 16.3144C54.043 16.1267 53.611 16.0271 53.1731 16.022H46.9306C46.3542 16.0238 45.7895 16.1894 45.2992 16.5004C44.8089 16.8114 44.412 17.2557 44.1526 17.7841L43.8093 18.4569C43.4784 19.1321 42.9256 19.6654 42.2487 19.9627L45.7445 12.8182H54.2032C54.8785 12.8182 55.5357 13.043 56.0759 13.4589L63.8167 19.4181C65.2084 20.4863 66.8622 21.1361 68.5931 21.2945C70.324 21.4529 72.0637 21.1138 73.6175 20.3151L79.4543 17.3356L83.2311 38.673L75.9585 41.14Z" fill="white"/>
</svg>
