<svg width="150" height="163" viewBox="0 0 150 163" fill="none" xmlns="http://www.w3.org/2000/svg">
<path d="M131.513 129.189L132.617 127.817C133.077 128.054 133.538 128.191 134 128.229C134.459 128.27 134.906 128.229 135.341 128.104C135.776 127.986 136.185 127.796 136.567 127.532C136.949 127.269 137.292 126.949 137.595 126.573C138.147 125.887 138.474 125.126 138.576 124.29C138.675 123.457 138.519 122.605 138.108 121.734C137.694 120.866 136.997 120.037 136.016 119.247C135.035 118.457 134.076 117.953 133.14 117.734C132.201 117.519 131.335 117.548 130.543 117.823C129.748 118.1 129.074 118.582 128.522 119.268C128.219 119.644 127.98 120.047 127.804 120.477C127.628 120.907 127.527 121.346 127.502 121.793C127.477 122.247 127.533 122.694 127.672 123.133C127.811 123.58 128.043 124.001 128.369 124.397L127.264 125.769C126.768 125.199 126.402 124.594 126.164 123.953C125.926 123.312 125.81 122.659 125.816 121.995C125.826 121.334 125.951 120.684 126.192 120.045C126.429 119.41 126.778 118.807 127.239 118.235C128.017 117.269 128.945 116.599 130.022 116.227C131.1 115.855 132.248 115.803 133.466 116.072C134.684 116.342 135.89 116.957 137.085 117.919C138.28 118.881 139.139 119.929 139.662 121.061C140.185 122.193 140.379 123.326 140.246 124.458C140.112 125.59 139.656 126.64 138.878 127.606C138.418 128.178 137.903 128.647 137.333 129.015C136.761 129.387 136.15 129.647 135.503 129.794C134.859 129.944 134.199 129.972 133.522 129.877C132.848 129.784 132.179 129.555 131.513 129.189Z" fill="white"/>
<path d="M121.579 124.647L128.661 132.944L127.386 134.032L124.306 130.424L123.463 131.143L123.562 137.297L121.919 138.699L121.857 131.842L114.794 130.438L116.436 129.036L122.147 130.213L123.292 129.235L120.304 125.735L121.579 124.647Z" fill="white"/>
<path d="M110.14 132.965C110.984 132.458 111.846 132.214 112.724 132.233C113.599 132.255 114.432 132.519 115.223 133.027C116.01 133.538 116.694 134.276 117.274 135.242C117.859 136.216 118.193 137.173 118.276 138.112C118.355 139.053 118.199 139.914 117.807 140.696C117.411 141.481 116.791 142.127 115.946 142.634C115.102 143.141 114.243 143.383 113.368 143.362C112.489 143.343 111.655 143.076 110.866 142.561C110.072 142.049 109.383 141.306 108.798 140.332C108.218 139.366 107.89 138.414 107.813 137.477C107.732 136.543 107.89 135.683 108.286 134.898C108.678 134.116 109.296 133.472 110.14 132.965ZM110.915 134.255C110.274 134.641 109.845 135.122 109.628 135.699C109.412 136.277 109.365 136.893 109.488 137.548C109.61 138.204 109.86 138.844 110.235 139.469C110.61 140.094 111.06 140.617 111.583 141.037C112.106 141.458 112.674 141.71 113.288 141.794C113.902 141.878 114.53 141.728 115.171 141.343C115.813 140.958 116.24 140.474 116.454 139.893C116.669 139.311 116.713 138.691 116.588 138.032C116.462 137.372 116.212 136.73 115.837 136.105C115.461 135.48 115.013 134.959 114.493 134.543C113.972 134.126 113.406 133.878 112.794 133.798C112.183 133.718 111.557 133.87 110.915 134.255Z" fill="white"/>
<path d="M102.031 133.108L107.386 147.12L105.874 147.698L105.255 146.079L105.069 146.15C105.022 146.371 104.949 146.657 104.85 147.009C104.749 147.367 104.547 147.728 104.245 148.092C103.941 148.462 103.457 148.774 102.793 149.027C101.935 149.355 101.097 149.43 100.278 149.251C99.4598 149.072 98.7166 148.659 98.0485 148.012C97.3805 147.365 96.842 146.507 96.4329 145.436C96.0204 144.357 95.8464 143.352 95.9109 142.42C95.9771 141.492 96.2524 140.687 96.7369 140.005C97.223 139.328 97.8907 138.827 98.7399 138.502C99.3944 138.252 99.96 138.16 100.436 138.226C100.915 138.297 101.313 138.431 101.632 138.629C101.952 138.831 102.206 139.002 102.392 139.144L102.524 139.094L100.465 133.707L102.031 133.108ZM103.9 142.613C103.606 141.843 103.233 141.207 102.783 140.705C102.334 140.208 101.83 139.876 101.27 139.71C100.711 139.548 100.118 139.588 99.4898 139.828C98.8352 140.078 98.3549 140.459 98.0489 140.971C97.7402 141.49 97.5877 142.085 97.5914 142.758C97.5923 143.437 97.7314 144.139 98.0087 144.865C98.2826 145.581 98.6399 146.185 99.0808 146.675C99.519 147.171 100.023 147.503 100.594 147.67C101.162 147.844 101.778 147.803 102.441 147.55C103.078 147.306 103.552 146.94 103.862 146.452C104.173 145.968 104.33 145.396 104.331 144.736C104.334 144.081 104.191 143.373 103.9 142.613Z" fill="white"/>
<path d="M88.0347 141.523C89.0654 141.317 90 141.367 90.8385 141.672C91.6732 141.984 92.3746 142.51 92.9427 143.251C93.5071 143.998 93.8987 144.919 94.1176 146.015C94.3364 147.111 94.3297 148.116 94.0973 149.032C93.8612 149.953 93.4301 150.72 92.8041 151.332C92.1744 151.951 91.3766 152.356 90.4108 152.549C89.8537 152.661 89.2849 152.678 88.7046 152.6C88.1242 152.523 87.5694 152.32 87.0402 151.991C86.512 151.667 86.0473 151.19 85.6463 150.56C85.2454 149.931 84.9452 149.117 84.7458 148.118L84.6067 147.422L92.8529 145.775L93.1367 147.196L86.562 148.509C86.6825 149.113 86.9108 149.627 87.2469 150.052C87.5783 150.479 87.9919 150.785 88.4877 150.971C88.9789 151.157 89.5216 151.191 90.1159 151.073C90.7706 150.942 91.3046 150.666 91.7179 150.246C92.1276 149.831 92.4086 149.34 92.561 148.774C92.7134 148.207 92.7308 147.629 92.613 147.04L92.4238 146.092C92.2624 145.284 91.9864 144.627 91.5956 144.121C91.201 143.621 90.7238 143.274 90.164 143.082C89.605 142.894 88.9935 142.867 88.3296 142.999C87.8978 143.085 87.5198 143.224 87.1957 143.414C86.8678 143.61 86.6008 143.856 86.3946 144.153C86.1893 144.455 86.0541 144.806 85.989 145.205L84.312 145.076C84.3716 144.504 84.5579 143.975 84.8709 143.487C85.1849 143.004 85.6094 142.591 86.1444 142.248C86.6802 141.909 87.3103 141.667 88.0347 141.523Z" fill="white"/>
<path d="M77.2632 142.737C78.3136 142.697 79.2285 142.894 80.0079 143.329C80.7827 143.768 81.3919 144.399 81.8354 145.221C82.2744 146.047 82.5151 147.019 82.5576 148.136C82.6002 149.252 82.4342 150.244 82.0597 151.111C81.6807 151.983 81.1335 152.672 80.4184 153.178C79.6986 153.689 78.8467 153.963 77.8626 154C77.2948 154.022 76.7305 153.949 76.1697 153.78C75.609 153.612 75.0934 153.324 74.6229 152.915C74.1527 152.512 73.7695 151.967 73.4733 151.282C73.1771 150.597 73.0097 149.745 72.971 148.728L72.944 148.018L81.347 147.698L81.4021 149.146L74.7024 149.401C74.7258 150.016 74.8697 150.561 75.1341 151.034C75.3938 151.507 75.7537 151.875 76.2138 152.137C76.6692 152.399 77.1997 152.519 77.8053 152.496C78.4724 152.47 79.0434 152.283 79.5181 151.933C79.9883 151.588 80.3435 151.148 80.5837 150.613C80.8239 150.078 80.9326 149.51 80.9097 148.909L80.873 147.944C80.8417 147.121 80.6731 146.428 80.3675 145.866C80.0572 145.31 79.6409 144.892 79.1186 144.613C78.5964 144.339 77.9971 144.215 77.3205 144.241C76.8805 144.258 76.4854 144.335 76.1352 144.471C75.7805 144.612 75.4778 144.814 75.2271 145.074C74.9766 145.34 74.7876 145.664 74.66 146.048L73.0246 145.656C73.174 145.1 73.4419 144.607 73.8282 144.175C74.2147 143.748 74.6993 143.407 75.2819 143.153C75.8647 142.903 76.5251 142.765 77.2632 142.737Z" fill="white"/>
<path d="M66.1541 142.557L64.098 153.271L55.6723 151.654L57.7283 140.94L59.3744 141.256L57.6128 150.435L62.7464 151.42L64.508 142.241L66.1541 142.557Z" fill="white"/>
<path d="M53.2532 142.127L45.376 148.19L43.5665 147.514L47.3859 137.295L48.956 137.882L46.0019 145.785L53.8524 139.712L55.6886 140.398L51.8691 150.617L50.299 150.03L53.2532 142.127Z" fill="white"/>
<path d="M37.8545 144.901L36.4398 144.002L41.4532 136.113L37.9766 133.904L32.9632 141.792L31.5486 140.893L36.562 133.005L33.0854 130.795L28.072 138.683L26.6574 137.784L32.5088 128.577L43.7059 135.694L37.8545 144.901Z" fill="white"/>
<path d="M28.1598 127.747L18.5105 130.136L17.125 128.789L24.7276 120.966L25.9297 122.134L20.0496 128.185L29.6785 125.777L31.0843 127.143L23.4817 134.966L22.2797 133.798L28.1598 127.747Z" fill="white"/>
<path d="M9.77812 125.603L18.0795 119.247L19.0989 120.541L10.9733 127.121L9.77812 125.603ZM21.8925 117.293C22.1092 117.568 22.1967 117.882 22.1548 118.234C22.1129 118.587 21.9543 118.871 21.679 119.088C21.4038 119.305 21.0899 119.392 20.7375 119.35C20.3851 119.309 20.1005 119.15 19.8837 118.875C19.6669 118.599 19.5795 118.286 19.6214 117.933C19.6633 117.581 19.8219 117.296 20.0972 117.079C20.2794 116.936 20.4834 116.851 20.7092 116.823C20.932 116.793 21.15 116.817 21.3631 116.896C21.5695 116.975 21.746 117.107 21.8925 117.293Z" fill="white"/>
<path d="M18.4872 32.9782L17.3826 34.3502C16.9226 34.1136 16.4616 33.9765 15.9996 33.9388C15.5405 33.8975 15.0938 33.939 14.6593 34.0633C14.2241 34.181 13.8154 34.3716 13.433 34.6352C13.0506 34.8987 12.708 35.2186 12.4051 35.5948C11.8528 36.2807 11.5258 37.0418 11.4241 37.8778C11.3254 38.7101 11.4814 39.5621 11.8921 40.4337C12.3057 41.3016 13.003 42.1305 13.984 42.9203C14.9651 43.7102 15.9237 44.2145 16.8599 44.4333C17.7991 44.6485 18.6647 44.619 19.4568 44.3449C20.2519 44.0671 20.9255 43.5852 21.4778 42.8992C21.7807 42.5231 22.02 42.1201 22.1959 41.6902C22.3717 41.2604 22.4726 40.8219 22.4983 40.3746C22.5234 39.9206 22.4668 39.4738 22.3284 39.0341C22.1893 38.5878 21.9569 38.1667 21.6313 37.7708L22.7359 36.3988C23.2318 36.9683 23.5985 37.5736 23.8361 38.2147C24.0737 38.8558 24.1896 39.5084 24.1838 40.1724C24.1744 40.8334 24.0493 41.4834 23.8084 42.1223C23.5706 42.7575 23.2215 43.3609 22.7613 43.9326C21.9833 44.8988 21.0554 45.5681 19.9776 45.9404C18.8998 46.3127 17.752 46.3643 16.5342 46.095C15.3164 45.8258 14.11 45.2101 12.9151 44.2481C11.7201 43.286 10.8612 42.2388 10.3382 41.1066C9.81522 39.9743 9.62056 38.842 9.75422 37.7095C9.88788 36.5771 10.3437 35.5277 11.1216 34.5614C11.5819 33.9898 12.0969 33.52 12.6667 33.152C13.2395 32.7804 13.8496 32.5209 14.4971 32.3735C15.1409 32.2232 15.8013 32.1956 16.4783 32.2909C17.1517 32.3832 17.8213 32.6123 18.4872 32.9782Z" fill="white"/>
<path d="M28.4212 37.5207L21.3388 29.2232L22.6137 28.1351L25.6938 31.7436L26.5365 31.0243L26.4383 24.8705L28.0805 23.4688L28.1434 30.325L35.2061 31.7294L33.5639 33.1311L27.8534 31.9545L26.7082 32.932L29.6961 36.4325L28.4212 37.5207Z" fill="white"/>
<path d="M39.86 29.2028C39.0157 29.7098 38.1542 29.9537 37.2756 29.9346C36.401 29.913 35.5682 29.6482 34.7771 29.1401C33.9901 28.6297 33.3065 27.8914 32.7263 26.9253C32.1413 25.9511 31.8072 24.9946 31.7241 24.056C31.645 23.1149 31.8014 22.2533 32.1933 21.4711C32.5892 20.6866 33.2094 20.0408 34.0537 19.5338C34.898 19.0268 35.7575 18.7841 36.632 18.8057C37.5106 18.8248 38.3447 19.0917 39.1341 19.6062C39.9277 20.1183 40.6169 20.8615 41.202 21.8357C41.7821 22.8018 42.1105 23.7533 42.1872 24.6904C42.2679 25.625 42.1103 26.4846 41.7143 27.2691C41.3224 28.0512 40.7043 28.6958 39.86 29.2028ZM39.0848 27.912C39.7262 27.5268 40.1552 27.0456 40.3717 26.4681C40.5883 25.8907 40.6352 25.2744 40.5124 24.6191C40.3895 23.9639 40.1404 23.3237 39.765 22.6986C39.3896 22.0734 38.9404 21.5507 38.4173 21.1302C37.8942 20.7098 37.3257 20.4575 36.7118 20.3733C36.0978 20.289 35.4702 20.4395 34.8289 20.8246C34.1875 21.2098 33.7597 21.6931 33.5456 22.2745C33.3314 22.856 33.287 23.4764 33.4123 24.1357C33.5376 24.7951 33.7879 25.4373 34.1633 26.0624C34.5387 26.6875 34.9867 27.2083 35.5074 27.6246C36.028 28.041 36.5941 28.2893 37.2056 28.3694C37.8171 28.4496 38.4435 28.2971 39.0848 27.912Z" fill="white"/>
<path d="M47.9691 29.0593L42.6136 15.048L44.1262 14.4698L44.7449 16.0885L44.9306 16.0175C44.978 15.7967 45.051 15.5103 45.1497 15.1583C45.251 14.8002 45.4527 14.4392 45.7546 14.0755C46.0593 13.7056 46.5434 13.3938 47.2068 13.1402C48.0648 12.8123 48.9031 12.7377 49.7216 12.9165C50.5402 13.0953 51.2834 13.5082 51.9515 14.1551C52.6195 14.8021 53.158 15.6607 53.5671 16.731C53.9796 17.8102 54.1536 18.8157 54.0891 19.7477C54.0229 20.6753 53.7476 21.4801 53.2631 22.162C52.777 22.8395 52.1093 23.3406 51.2601 23.6651C50.6056 23.9153 50.04 24.0073 49.5636 23.941C49.0854 23.8704 48.687 23.7363 48.3682 23.5388C48.0477 23.3369 47.7944 23.165 47.6084 23.0232L47.4758 23.0739L49.5348 28.4609L47.9691 29.0593ZM46.1002 19.5547C46.3943 20.3243 46.7666 20.96 47.217 21.4621C47.6657 21.9596 48.1702 22.2915 48.7304 22.4575C49.2889 22.6191 49.8822 22.5799 50.5102 22.3398C51.1648 22.0896 51.6451 21.7084 51.9511 21.196C52.2598 20.6776 52.4123 20.082 52.4086 19.4092C52.4077 18.7304 52.2686 18.0283 51.9913 17.3029C51.7174 16.5864 51.3601 15.983 50.9192 15.4925C50.481 14.996 49.9765 14.6642 49.4058 14.4971C48.8377 14.3239 48.222 14.3641 47.5586 14.6177C46.9217 14.8611 46.4483 15.2271 46.1382 15.7156C45.8265 16.1997 45.67 16.7715 45.6686 17.431C45.6656 18.0861 45.8094 18.794 46.1002 19.5547Z" fill="white"/>
<path d="M61.9653 20.6448C60.9346 20.8507 60 20.8008 59.1615 20.4951C58.3268 20.1838 57.6254 19.6576 57.0573 18.9164C56.4929 18.1697 56.1013 17.2484 55.8824 16.1526C55.6636 15.0569 55.6703 14.0512 55.9027 13.1357C56.1388 12.2146 56.5699 11.4477 57.1959 10.835C57.8256 10.2167 58.6234 9.81115 59.5892 9.61826C60.1463 9.50697 60.7151 9.48994 61.2954 9.56716C61.8758 9.64439 62.4306 9.84742 62.9598 10.1763C63.488 10.5005 63.9527 10.9774 64.3537 11.6071C64.7546 12.2368 65.0548 13.0508 65.2542 14.049L65.3933 14.7455L57.1471 16.3925L56.8633 14.9717L63.438 13.6586C63.3175 13.055 63.0892 12.5405 62.7531 12.1151C62.4217 11.6888 62.0081 11.3827 61.5123 11.1969C61.0211 11.0101 60.4784 10.9761 59.8841 11.0948C59.2294 11.2255 58.6954 11.5012 58.2821 11.9217C57.8724 12.3367 57.5914 12.8274 57.439 13.3938C57.2866 13.9602 57.2692 14.5382 57.387 15.1279L57.5762 16.0751C57.7376 16.883 58.0136 17.54 58.4044 18.0462C58.799 18.5468 59.2762 18.8933 59.836 19.0857C60.395 19.2734 61.0065 19.3009 61.6704 19.1683C62.1022 19.0821 62.4802 18.9438 62.8043 18.7535C63.1322 18.5577 63.3992 18.3112 63.6054 18.0141C63.8107 17.7124 63.9459 17.3619 64.011 16.9626L65.688 17.0912C65.6284 17.6632 65.4421 18.1929 65.1291 18.6803C64.8151 19.1631 64.3906 19.5762 63.8556 19.9196C63.3198 20.2584 62.6897 20.5002 61.9653 20.6448Z" fill="white"/>
<path d="M72.7368 19.431C71.6864 19.4709 70.7715 19.2736 69.9921 18.8389C69.2173 18.3993 68.6081 17.7686 68.1646 16.9468C67.7256 16.1201 67.4849 15.1485 67.4424 14.0319C67.3998 12.9152 67.5658 11.9234 67.9403 11.0562C68.3193 10.1842 68.8665 9.49524 69.5816 8.98945C70.3014 8.47874 71.1533 8.20466 72.1374 8.1672C72.7052 8.14558 73.2695 8.21887 73.8303 8.38705C74.391 8.55523 74.9066 8.84359 75.3771 9.25213C75.8473 9.65593 76.2305 10.2005 76.5267 10.8857C76.8229 11.571 76.9903 12.4222 77.029 13.4395L77.056 14.1492L68.653 14.4691L68.5979 13.0213L75.2976 12.7662C75.2742 12.1511 75.1303 11.607 74.8659 11.1337C74.6062 10.6603 74.2463 10.2926 73.7862 10.0305C73.3308 9.76832 72.8003 9.64873 72.1947 9.67179C71.5276 9.69718 70.9566 9.88476 70.4819 10.2345C70.0117 10.5793 69.6565 11.0193 69.4163 11.5544C69.1761 12.0895 69.0674 12.6575 69.0903 13.2584L69.127 14.2236C69.1583 15.0469 69.3269 15.7393 69.6325 16.301C69.9428 16.8578 70.3591 17.2755 70.8814 17.5542C71.4036 17.8281 72.0029 17.9521 72.6795 17.9264C73.1195 17.9096 73.5146 17.833 73.8648 17.6965C74.2195 17.555 74.5222 17.354 74.7729 17.0933C75.0234 16.8279 75.2124 16.5032 75.34 16.1193L76.9754 16.5119C76.826 17.0673 76.5581 17.5608 76.1718 17.9924C75.7853 18.4194 75.3007 18.76 74.7181 19.0144C74.1353 19.264 73.4749 19.4029 72.7368 19.431Z" fill="white"/>
<path d="M83.8459 19.6104L85.902 8.89684L94.3277 10.5138L92.2717 21.2274L90.6256 20.9115L92.3872 11.7324L87.2536 10.7472L85.492 19.9263L83.8459 19.6104Z" fill="white"/>
<path d="M96.7468 20.0409L104.624 13.9776L106.434 14.654L102.614 24.8726L101.044 24.2857L103.998 16.3823L96.1476 22.4555L94.3114 21.7692L98.1309 11.5506L99.701 12.1375L96.7468 20.0409Z" fill="white"/>
<path d="M112.146 17.2669L113.56 18.1659L108.547 26.0542L112.023 28.2638L117.037 20.3755L118.451 21.2745L113.438 29.1628L116.915 31.3723L121.928 23.484L123.343 24.3831L117.491 33.5901L106.294 26.4739L112.146 17.2669Z" fill="white"/>
<path d="M121.84 34.4204L131.49 32.032L132.875 33.3783L125.272 41.2019L124.07 40.0338L129.95 33.9827L120.321 36.3909L118.916 35.0248L126.518 27.2012L127.72 28.3693L121.84 34.4204Z" fill="white"/>
<path d="M140.222 36.5641L131.921 42.9206L130.901 41.6261L139.027 35.0464L140.222 36.5641ZM128.108 44.8746C127.891 44.5993 127.803 44.2855 127.845 43.9331C127.887 43.5807 128.046 43.2961 128.321 43.0793C128.596 42.8625 128.91 42.7751 129.263 42.817C129.615 42.8589 129.9 43.0175 130.116 43.2927C130.333 43.568 130.42 43.8819 130.379 44.2343C130.337 44.5867 130.178 44.8713 129.903 45.088C129.721 45.2316 129.517 45.3169 129.291 45.344C129.068 45.3748 128.85 45.3506 128.637 45.2713C128.43 45.1928 128.254 45.0606 128.108 44.8746Z" fill="white"/>
<circle cx="5" cy="83" r="5" fill="white"/>
<circle cx="145" cy="83" r="5" fill="white"/>
<path d="M101.768 84.7678C102.744 83.7915 102.744 82.2085 101.768 81.2322L85.8579 65.3223C84.8816 64.346 83.2986 64.346 82.3223 65.3223C81.346 66.2986 81.346 67.8816 82.3223 68.8579L96.4645 83L82.3223 97.1421C81.346 98.1184 81.346 99.7014 82.3223 100.678C83.2986 101.654 84.8816 101.654 85.8579 100.678L101.768 84.7678ZM50 85.5H100V80.5H50V85.5Z" fill="white"/>
</svg>
