<svg width="80" height="68" viewBox="0 0 80 68" fill="none" xmlns="http://www.w3.org/2000/svg">
<path d="M76.9004 10.191H64.0892C66.8872 7.32634 66.5983 4.93902 66.1211 3.70847C65.5844 2.32319 63.8946 0 58.6097 0C55.8415 0 52.5104 0.646272 49.23 1.81973C45.6213 3.11102 42.2208 4.9724 39.9992 7.12292C37.7788 4.9724 34.3783 3.11102 30.7696 1.81973C27.4893 0.646272 24.1582 0 21.3899 0C16.1062 0 14.4166 2.32307 13.8785 3.70722C13.4013 4.93777 13.1112 7.32521 15.9104 10.1898H3.09934C1.38732 10.1898 0 11.5215 0 13.1651V23.6893C0 25.3329 1.38718 26.6647 3.09934 26.6647H4.8609V65.0246C4.8609 66.6682 6.24808 68 7.96024 68H36.1327H43.8672H72.0396C73.7517 68 75.139 66.6683 75.139 65.0246V48.182C75.139 48.1797 75.139 48.1785 75.139 48.1761V40.7522C75.139 40.751 75.139 40.7486 75.139 40.7463V26.6658H76.9007C78.6127 26.6658 80 25.3341 80 23.6905V13.1663C79.9997 11.5227 78.6126 10.191 76.9004 10.191ZM73.8012 20.7152H46.9664V16.1416H52.9307H73.8012V20.7152ZM68.939 45.2019H46.9664V43.7285H68.9403V45.2019H68.939ZM33.0334 45.2019H11.0607V43.7285H33.0334V45.2019ZM51.3947 7.39662C53.9609 6.47903 56.5916 5.95185 58.6099 5.95185C59.0462 5.95185 59.407 5.97682 59.6984 6.01372C58.6645 7.10623 56.2396 8.82117 52.4634 10.1719L45.7987 10.1921C47.0991 9.28285 48.9673 8.26413 51.3947 7.39662ZM27.5302 10.1683C23.759 8.81992 21.3354 7.10611 20.3015 6.01246C20.5929 5.9767 20.9535 5.9506 21.39 5.9506C23.4083 5.9506 26.0389 6.47778 28.6063 7.39536C31.0324 8.263 32.9019 9.28172 34.2011 10.1898H27.5972L27.5302 10.1683ZM6.19854 16.1416H27.0704H33.0334V20.7152H6.19854V16.1416ZM33.0334 26.6658V37.7768H11.0594V26.6658H33.0334ZM11.0594 51.1525H33.0334V62.0517H11.0594V51.1525ZM39.2319 62.0505V48.1773V40.7533V16.1416H40.7678V40.7533V48.1773V62.0517H39.2319V62.0505ZM46.9664 62.0505V51.1514H68.9403V62.0505H46.9664ZM68.939 37.7779H46.9664V26.6669H68.9403V37.7779H68.939Z" fill="#F3F3F3"/>
</svg>
