<svg width="80" height="76" viewBox="0 0 80 76" fill="none" xmlns="http://www.w3.org/2000/svg">
<path d="M7.33481 68.8994C11.6697 73 18.6464 73 32.6 73H47.4C61.3534 73 68.3305 73 72.6651 68.8994C77 64.7991 77 58.1992 77 45C77 40.9057 77 37.4466 76.8705 34.5M72.6651 21.1005C68.3305 17 61.3534 17 47.4 17H32.6C18.6464 17 11.6697 17 7.33481 21.1005C3 25.201 3 31.8008 3 45C3 49.0943 3 52.5534 3.12935 55.5" stroke="#F3F3F3" stroke-width="5" stroke-linecap="round"/>
<path d="M40 3C47.071 3 50.6065 3 52.8032 5.05026C55 7.10049 55 10.4003 55 17M27.1967 5.05026C25 7.10049 25 10.4003 25 17" stroke="#F3F3F3" stroke-width="5" stroke-linecap="round"/>
<path d="M40 55.7499C43.8661 55.7499 47 53.2315 47 50.1251C47 47.0184 43.8661 44.5 40 44.5C36.1339 44.5 33 41.9816 33 38.8749C33 35.7685 36.1339 33.2501 40 33.2501M40 55.7499C36.1339 55.7499 33 53.2315 33 50.1251M40 55.7499V58M40 33.2501V31M40 33.2501C43.8661 33.2501 47 35.7685 47 38.8749" stroke="#F3F3F3" stroke-width="5" stroke-linecap="round"/>
</svg>
