<svg width="51" height="45" viewBox="0 0 51 45" fill="none" xmlns="http://www.w3.org/2000/svg">
<path d="M47.8551 0H3.05965C1.37222 0 0 1.33541 0 2.97686V42.0233C0 43.6647 1.37222 45 3.05965 45H47.8553C49.5422 45 50.9144 43.6647 50.9144 42.0233V2.97686C50.9148 1.33554 49.5421 0 47.8551 0ZM38.63 4.99874C38.63 4.39172 39.1357 3.89951 39.7595 3.89951H40.8894C41.5136 3.89951 42.019 4.39159 42.019 4.99874V6.24447C42.019 6.85149 41.5132 7.34357 40.8894 7.34357H39.7595C39.1357 7.34357 38.63 6.85149 38.63 6.24447V4.99874ZM33.3764 4.99874C33.3764 4.39172 33.8825 3.89951 34.5063 3.89951H35.6359C36.2597 3.89951 36.7657 4.39159 36.7657 4.99874V6.24447C36.7657 6.85149 36.2597 7.34357 35.6359 7.34357H34.5063C33.8825 7.34357 33.3764 6.85149 33.3764 6.24447V4.99874ZM47.2428 41.4277H3.67164V10.6454H47.2428V41.4277ZM47.2725 6.24447C47.2725 6.85149 46.7667 7.34357 46.1429 7.34357H45.0131C44.3888 7.34357 43.8834 6.85149 43.8834 6.24447V4.99874C43.8834 4.39172 44.3891 3.89951 45.0131 3.89951H46.1429C46.7668 3.89951 47.2725 4.39159 47.2725 4.99874V6.24447Z" fill="url(#paint0_linear_45_42)"/>
<path d="M10.9291 27.1974L19.1188 30.9026C19.3306 30.998 19.5559 31.0463 19.789 31.0463C20.0925 31.0463 20.3884 30.9625 20.6455 30.8033C21.106 30.517 21.3811 30.0291 21.3811 29.4981V29.4574C21.3811 28.8572 21.0195 28.306 20.4599 28.0532L15.3377 25.7378L20.4599 23.4221C21.0195 23.169 21.3811 22.6179 21.3811 22.018V21.9777C21.3811 21.446 21.106 20.9578 20.6455 20.6725C20.3909 20.5142 20.0943 20.4305 19.7881 20.4305C19.5571 20.4305 19.3255 20.4799 19.1182 20.5736L10.929 24.2785C10.3698 24.5316 10.0085 25.0829 10.0085 25.6826V25.7934C10.0084 26.3922 10.3694 26.9432 10.9291 27.1974Z" fill="url(#paint1_linear_45_42)"/>
<path d="M21.4541 34.7444C21.7528 35.1421 22.2333 35.3797 22.7393 35.3797H22.7803C23.4751 35.3797 24.0839 34.947 24.2956 34.3039L29.6904 18.0409C29.8451 17.5716 29.7593 17.0535 29.4605 16.655C29.1618 16.2571 28.6813 16.0197 28.1751 16.0197H28.1342C27.4391 16.0197 26.8297 16.4522 26.618 17.0953L21.2227 33.3596C21.0691 33.8295 21.1556 34.3469 21.4541 34.7444Z" fill="url(#paint2_linear_45_42)"/>
<path d="M29.5333 22.0179C29.5333 22.6172 29.8946 23.1684 30.4544 23.4228L35.5765 25.7378L30.4544 28.0529C29.8949 28.306 29.5333 28.8572 29.5333 29.4572V29.4979C29.5333 30.029 29.8081 30.5169 30.2691 30.8033C30.5254 30.9622 30.8214 31.0463 31.1253 31.0463C31.3581 31.0463 31.5833 30.998 31.7965 30.9021L39.9857 27.197C40.5448 26.9432 40.9061 26.3922 40.9061 25.7931V25.6823C40.9061 25.0826 40.5448 24.5313 39.9852 24.2782L31.796 20.5733C31.5894 20.4799 31.3581 20.4305 31.1271 20.4305C30.8214 20.4305 30.5244 20.514 30.2698 20.672C29.8088 20.9578 29.5337 21.4458 29.5337 21.9776V22.0177H29.5333V22.0179Z" fill="url(#paint3_linear_45_42)"/>
<defs>
<linearGradient id="paint0_linear_45_42" x1="-2.47502" y1="52.4273" x2="73.5411" y2="67.4853" gradientUnits="userSpaceOnUse">
<stop stop-color="#FC00FF"/>
<stop offset="1" stop-color="#1D1AD2"/>
</linearGradient>
<linearGradient id="paint1_linear_45_42" x1="9.45569" y1="32.7985" x2="26.5018" y2="35.9956" gradientUnits="userSpaceOnUse">
<stop stop-color="#FC00FF"/>
<stop offset="1" stop-color="#1D1AD2"/>
</linearGradient>
<linearGradient id="paint2_linear_45_42" x1="20.7291" y1="38.5751" x2="34.02" y2="39.6109" gradientUnits="userSpaceOnUse">
<stop stop-color="#FC00FF"/>
<stop offset="1" stop-color="#1D1AD2"/>
</linearGradient>
<linearGradient id="paint3_linear_45_42" x1="28.9805" y1="32.7985" x2="46.0269" y2="35.9958" gradientUnits="userSpaceOnUse">
<stop stop-color="#FC00FF"/>
<stop offset="1" stop-color="#1D1AD2"/>
</linearGradient>
</defs>
</svg>
