<svg width="45" height="46" viewBox="0 0 45 46" fill="none" xmlns="http://www.w3.org/2000/svg">
<g clip-path="url(#clip0_46_82)">
<path d="M27.3712 39.9416C26.8088 40.3654 26.2107 40.8117 25.7027 41.2542H29.9958C30.4931 41.2542 30.9699 41.4518 31.3215 41.8034C31.6731 42.1551 31.8706 42.6321 31.8706 43.1294C31.8706 43.6267 31.6731 44.1037 31.3215 44.4554C30.9699 44.807 30.4931 45.0046 29.9958 45.0046H22.4969C21.9996 45.0046 21.5228 44.807 21.1712 44.4554C20.8196 44.1037 20.6221 43.6267 20.6221 43.1294C20.6221 40.3166 23.0124 38.5239 25.1215 36.9413C26.5276 35.8874 28.1211 34.6911 28.1211 33.7535C28.1211 33.2561 27.9236 32.7792 27.572 32.4275C27.2204 32.0758 26.7436 31.8783 26.2463 31.8783C25.7491 31.8783 25.2723 32.0758 24.9207 32.4275C24.5691 32.7792 24.3716 33.2561 24.3716 33.7535C24.3716 34.2508 24.1741 34.7278 23.8225 35.0794C23.4709 35.4311 22.9941 35.6286 22.4969 35.6286C21.9996 35.6286 21.5228 35.4311 21.1712 35.0794C20.8196 34.7278 20.6221 34.2508 20.6221 33.7535C20.6221 32.2615 21.2147 30.8306 22.2694 29.7756C23.3242 28.7206 24.7547 28.1279 26.2463 28.1279C27.738 28.1279 29.1685 28.7206 30.2233 29.7756C31.278 30.8306 31.8706 32.2615 31.8706 33.7535C31.8706 36.5662 29.4803 38.3589 27.3712 39.9416ZM43.1191 28.1279C42.6219 28.1279 42.145 28.3255 41.7934 28.6771C41.4419 29.0288 41.2443 29.5058 41.2443 30.0031V35.6286H39.3696C38.8724 35.6286 38.3955 35.4311 38.0439 35.0794C37.6924 34.7278 37.4948 34.2508 37.4948 33.7535V30.0031C37.4948 29.5058 37.2973 29.0288 36.9457 28.6771C36.5942 28.3255 36.1173 28.1279 35.6201 28.1279C35.1229 28.1279 34.646 28.3255 34.2944 28.6771C33.9429 29.0288 33.7453 29.5058 33.7453 30.0031V33.7535C33.7453 35.2454 34.3379 36.6763 35.3926 37.7313C36.4474 38.7863 37.8779 39.379 39.3696 39.379H41.2443V43.1294C41.2443 43.6267 41.4419 44.1037 41.7934 44.4554C42.145 44.807 42.6219 45.0046 43.1191 45.0046C43.6163 45.0046 44.0932 44.807 44.4447 44.4554C44.7963 44.1037 44.9938 43.6267 44.9938 43.1294V30.0031C44.9938 29.5058 44.7963 29.0288 44.4447 28.6771C44.0932 28.3255 43.6163 28.1279 43.1191 28.1279ZM24.3716 22.5023V13.1264C24.3716 12.6291 24.1741 12.1521 23.8225 11.8004C23.4709 11.4488 22.9941 11.2512 22.4969 11.2512C21.9996 11.2512 21.5228 11.4488 21.1712 11.8004C20.8196 12.1521 20.6221 12.6291 20.6221 13.1264V20.6271H14.9979C14.5006 20.6271 14.0238 20.8247 13.6722 21.1764C13.3206 21.528 13.1231 22.005 13.1231 22.5023C13.1231 22.9997 13.3206 23.4766 13.6722 23.8283C14.0238 24.18 14.5006 24.3775 14.9979 24.3775H22.4969C22.9941 24.3775 23.4709 24.18 23.8225 23.8283C24.1741 23.4766 24.3716 22.9997 24.3716 22.5023ZM43.1191 3.75046C42.6219 3.75046 42.145 3.94803 41.7934 4.29969C41.4419 4.65136 41.2443 5.12832 41.2443 5.62565V10.0773C39.291 7.12875 36.6702 4.68229 33.5946 2.93645C30.519 1.19062 27.0753 0.194593 23.5428 0.0291943C20.0103 -0.136205 16.4886 0.53368 13.2634 1.9845C10.0382 3.43531 7.20038 5.62619 4.98018 8.37937C2.75997 11.1325 1.21993 14.3705 0.485008 17.8304C-0.249914 21.2904 -0.159014 24.8749 0.750332 28.2931C1.65968 31.7113 3.36185 34.867 5.71875 37.5041C8.07565 40.1411 11.0209 42.1853 14.3155 43.4707C14.5332 43.5547 14.7645 43.5979 14.9979 43.5982C15.4353 43.5989 15.8593 43.4465 16.1963 43.1674C16.5333 42.8884 16.7621 42.5002 16.8431 42.0702C16.9241 41.6402 16.8522 41.1953 16.6398 40.8128C16.4275 40.4302 16.088 40.1339 15.6803 39.9753C12.8832 38.8935 10.3864 37.1563 8.39946 34.9095C6.41254 32.6628 4.99347 29.972 4.26138 27.0632C3.52929 24.1543 3.50554 21.1122 4.19214 18.1923C4.87873 15.2724 6.25562 12.5598 8.20723 10.2823C10.1588 8.00473 12.6282 6.22874 15.4081 5.10336C18.1879 3.97798 21.1971 3.53606 24.1831 3.81468C27.169 4.09331 30.0446 5.08435 32.5683 6.70462C35.0921 8.32489 37.1904 10.5271 38.6872 13.1264H33.7453C33.2481 13.1264 32.7713 13.324 32.4197 13.6756C32.0681 14.0273 31.8706 14.5043 31.8706 15.0016C31.8706 15.4989 32.0681 15.9759 32.4197 16.3275C32.7713 16.6792 33.2481 16.8768 33.7453 16.8768H39.3696C40.8612 16.8768 42.2918 16.2841 43.3465 15.2291C44.4013 14.1741 44.9938 12.7432 44.9938 11.2512V5.62565C44.9938 5.12832 44.7963 4.65136 44.4447 4.29969C44.0932 3.94803 43.6163 3.75046 43.1191 3.75046Z" fill="url(#paint0_linear_46_82)"/>
</g>
<defs>
<linearGradient id="paint0_linear_46_82" x1="-2.19368" y1="52.4319" x2="65.5518" y2="64.2927" gradientUnits="userSpaceOnUse">
<stop stop-color="#FC00FF"/>
<stop offset="1" stop-color="#1D1AD2"/>
</linearGradient>
<clipPath id="clip0_46_82">
<rect width="45" height="46" fill="white"/>
</clipPath>
</defs>
</svg>
