<svg width="16" height="20" viewBox="0 0 16 20" fill="none" xmlns="http://www.w3.org/2000/svg">
<path d="M8 0C3.83203 0 0.5 3.33203 0.5 7.5C0.5 8.94141 0.929687 10.0547 1.67578 11.1836L7.21094 19.582C7.37891 19.8359 7.66797 20 8 20C8.33203 20 8.625 19.832 8.78906 19.582L14.3242 11.1836C15.0703 10.0547 15.5 8.94141 15.5 7.5C15.5 3.33203 12.168 0 8 0ZM8 11.6641C5.69922 11.6641 3.83203 9.79688 3.83203 7.49219C3.83203 5.1875 5.69922 3.32031 8 3.32031C10.3008 3.32031 12.168 5.1875 12.168 7.49219C12.168 9.79688 10.3008 11.6641 8 11.6641ZM8 5C6.61719 5 5.5 6.11719 5.5 7.5C5.5 8.88281 6.61719 10 8 10C9.38281 10 10.5 8.88281 10.5 7.5C10.5 6.11719 9.38281 5 8 5Z" fill="#1D1AD2"/>
</svg>
