<svg width="20" height="20" viewBox="0 0 20 20" fill="none" xmlns="http://www.w3.org/2000/svg">
<path fill-rule="evenodd" clip-rule="evenodd" d="M3.93141 2.57642C4.95323 1.50064 6.64341 1.7022 7.48807 2.89685L8.53891 4.38308C9.2145 5.33864 9.15741 6.66711 8.35116 7.516L8.14708 7.73083C8.14651 7.73231 8.14591 7.73392 8.1453 7.73566C8.13451 7.76596 8.10725 7.86245 8.13408 8.04558C8.1897 8.42517 8.48275 9.19659 9.6725 10.4492C10.8659 11.7056 11.5898 12.0018 11.9252 12.0563C12.07 12.0798 12.1457 12.0593 12.1698 12.0508L12.5103 11.6923C13.2385 10.9257 14.3737 10.7747 15.2892 11.3016L16.8812 12.2179C18.242 13.0012 18.5587 14.9172 17.4712 16.0621L16.2875 17.3084C15.918 17.6974 15.4142 18.0294 14.7917 18.0908C13.2717 18.2409 9.75083 18.0455 6.05967 14.1594C2.61536 10.5332 1.96105 7.37911 1.87834 5.8381C1.83747 5.0767 2.17686 4.42363 2.62341 3.9535L3.93141 2.57642ZM6.46741 3.61848C6.04045 3.01461 5.27343 2.97858 4.83773 3.43728L3.52973 4.81436C3.25357 5.1051 3.10868 5.43835 3.12654 5.7711C3.19407 7.02928 3.73589 9.89784 6.96599 13.2985C10.3528 16.8643 13.473 16.9649 14.6688 16.8469C14.9053 16.8236 15.1486 16.6923 15.3812 16.4476L16.5649 15.2013C17.0756 14.6636 16.9417 13.695 16.2577 13.3013L14.6656 12.3849C14.2383 12.139 13.7378 12.215 13.4167 12.5532L13.0371 12.9528L12.5978 12.5355C13.0371 12.9528 13.0365 12.9533 13.036 12.954L13.0347 12.9552L13.0323 12.9578L13.027 12.9632L13.0151 12.9749C13.0065 12.9833 12.9966 12.9923 12.9854 13.0022C12.963 13.0218 12.9352 13.0443 12.902 13.0678C12.8352 13.1152 12.7462 13.1673 12.6338 13.2116C12.4038 13.3023 12.1001 13.351 11.7249 13.2901C10.9936 13.1713 10.0352 12.6461 8.76616 11.31C7.49335 9.97 7.00621 8.97025 6.89729 8.22679C6.84185 7.8484 6.88621 7.5454 6.96763 7.3166C7.00767 7.20407 7.05495 7.11435 7.09855 7.04622C7.12029 7.01225 7.14101 6.9838 7.15933 6.96065C7.16849 6.94908 7.17705 6.93882 7.18485 6.92986L7.19595 6.91737L7.20104 6.91185L7.20345 6.90925L7.20463 6.908C7.2052 6.9074 7.20578 6.9068 7.64884 7.32761L7.20579 6.90679L7.4448 6.65515C7.81608 6.26426 7.87002 5.60227 7.51824 5.10472L6.46741 3.61848Z" fill="#1D1AD2"/>
<path d="M11.0496 1.56636C11.1048 1.22562 11.4268 0.994481 11.7676 1.04964C11.7887 1.05368 11.8566 1.06636 11.8921 1.07428C11.9633 1.09012 12.0624 1.1145 12.1861 1.15052C12.4334 1.22256 12.7789 1.34123 13.1936 1.53134C14.0238 1.91197 15.1287 2.57781 16.2752 3.72431C17.4217 4.87081 18.0875 5.97565 18.4681 6.80588C18.6583 7.22056 18.7769 7.56606 18.8489 7.81338C18.8849 7.93706 18.9093 8.03625 18.9252 8.10735C18.9331 8.14291 18.9389 8.17146 18.9429 8.19255L18.9478 8.21855C19.0028 8.55926 18.7738 8.89476 18.4331 8.94992C18.0933 9.00492 17.7733 8.77484 17.7168 8.43576C17.715 8.42659 17.7102 8.40217 17.7051 8.37909C17.6948 8.33292 17.677 8.25974 17.6488 8.16294C17.5924 7.96933 17.4945 7.68156 17.3318 7.32682C17.007 6.61823 16.4228 5.63975 15.3913 4.60819C14.3598 3.57664 13.3813 2.99248 12.6727 2.66762C12.3179 2.50499 12.0302 2.40705 11.8365 2.35065C11.7398 2.32246 11.6181 2.29453 11.5719 2.28426C11.2328 2.22773 10.9946 1.90613 11.0496 1.56636Z" fill="#1D1AD2"/>
<path fill-rule="evenodd" clip-rule="evenodd" d="M11.2384 4.44125C11.3333 4.10935 11.6792 3.91717 12.0111 4.012L11.8394 4.61295C12.0111 4.012 12.0108 4.01192 12.0111 4.012L12.0123 4.01235L12.0135 4.01271L12.0164 4.01353L12.0228 4.01545L12.0393 4.02059C12.0519 4.02461 12.0675 4.02985 12.0863 4.03648C12.1237 4.04976 12.1731 4.06865 12.2338 4.09465C12.3552 4.14668 12.5211 4.22703 12.7249 4.34762C13.1328 4.58903 13.6896 4.99 14.3437 5.64415C14.9979 6.2983 15.3989 6.85512 15.6403 7.263C15.7609 7.46676 15.8412 7.63265 15.8932 7.75405C15.9192 7.81473 15.9381 7.86419 15.9514 7.90162C15.958 7.92033 15.9633 7.93602 15.9673 7.94858L15.9724 7.96507L15.9744 7.97153L15.9752 7.97431L15.9755 7.97559C15.9756 7.97589 15.9759 7.97679 15.3749 8.14849L15.9759 7.97679C16.0707 8.30869 15.8785 8.65458 15.5466 8.74941C15.2175 8.8435 14.8747 8.65533 14.7764 8.32861L14.7734 8.31963C14.7689 8.3071 14.7597 8.28245 14.7443 8.24645C14.7134 8.1745 14.6575 8.05681 14.5645 7.89965C14.3787 7.5857 14.0431 7.11133 13.4599 6.52804C12.8765 5.94474 12.4022 5.60915 12.0882 5.42335C11.931 5.33033 11.8134 5.27442 11.7414 5.24358C11.7054 5.22815 11.6808 5.21896 11.6683 5.21451L11.6593 5.21144C11.3325 5.1132 11.1444 4.77033 11.2384 4.44125Z" fill="#1D1AD2"/>
</svg>
